<svg xmlns="http://www.w3.org/2000/svg" width="22.886" height="22.886" viewBox="0 0 22.886 22.886">
  <g id="pencil" transform="translate(0 -0.002)">
    <g id="Group_1" data-name="Group 1" transform="translate(0 0.002)">
      <path id="Path_2" data-name="Path 2" d="M22.277,3.716,19.156.593a2.127,2.127,0,0,0-2.944,0L2.231,14.713a.523.523,0,0,0-.131.224L.02,22.225a.521.521,0,0,0,.643.644l7.282-2.082a.522.522,0,0,0,.223-.131L22.277,6.661a2.083,2.083,0,0,0,0-2.945Zm-8.331.662L15.86,6.292l-10,10-.717-1.435a.52.52,0,0,0-.465-.288H3.848ZM1.277,21.611l.678-2.372,1.694,1.694Zm6-1.715-2.489.711L2.282,18.095l.711-2.489H4.359l.9,1.793a.52.52,0,0,0,.233.233l1.793.9V19.9Zm1.04-.855v-.833a.52.52,0,0,0-.288-.465L6.6,17.024l10-10L18.51,8.943Zm13.22-13.1L19.249,8.21,14.678,3.639l2.271-2.292a1.065,1.065,0,0,1,1.471,0l3.121,3.121a1.04,1.04,0,0,1,0,1.469Z" transform="translate(0 -0.002)" fill="#c3c3c3"/>
    </g>
  </g>
</svg>
